<svg xmlns="http://www.w3.org/2000/svg" width="744" height="218" fill="none"><path fill="#FF2227" d="m84.749 135.762-2.792-4.07c-1.394 2.259-3.57 4.518-6.527 6.775-2.926 2.249-6.55 4-10.872 5.254-4.862 1.411-9.646 2.084-14.35 2.018-4.705-.067-9.088-1.04-13.148-2.92-4.03-1.889-7.63-4.765-10.802-8.628-3.15-3.902-5.626-8.959-7.429-15.171-1.803-6.213-2.354-11.812-1.654-16.799.722-5.025 2.294-9.419 4.716-13.18a32.873 32.873 0 0 1 9.272-9.427 42.815 42.815 0 0 1 12.075-5.652c2.52-.732 4.843-1.194 6.967-1.388 2.154-.202 4.084-.225 5.788-.07 1.696.127 3.165.368 4.407.723 1.234.325 2.242.602 3.024.83l-1.072-3.69 14.856-4.312 7.12 24.534-15.755 4.573c-1.044-3.146-2.749-5.433-5.116-6.862-2.345-1.466-5.109-1.738-8.29-.815-1.62.47-3.049 1.21-4.285 2.22-1.245.98-2.195 2.362-2.848 4.146-.654 1.784-.934 4.013-.842 6.687.123 2.665.738 5.903 1.844 9.715 1.054 3.631 2.133 6.621 3.237 8.968 1.126 2.309 2.331 4.107 3.616 5.394 1.305 1.248 2.719 2.025 4.24 2.332 1.512.277 3.198.146 5.059-.394.42-.122.932-.32 1.536-.593a9.098 9.098 0 0 0 1.715-.985c.531-.415.954-.863 1.27-1.345.345-.491.427-1.051.244-1.682l-.719-2.475c-.41-1.411-1.198-2.337-2.368-2.779-1.178-.471-3.088-.324-5.729.443l-4.311-14.856L94.82 91.254l4.312 14.856c-2.641.766-4.427 1.675-5.359 2.726-.94 1.021-1.127 2.507-.56 4.458l5.356 18.457-13.82 4.011ZM109.376 102.275c-.943-4.496-.99-8.605-.142-12.327.848-3.721 2.473-7.015 4.873-9.881 2.425-2.903 5.55-5.362 9.374-7.377 3.824-2.015 8.244-3.549 13.26-4.6 5.016-1.051 9.68-1.422 13.991-1.113 4.312.31 8.145 1.31 11.501 3.001 3.35 1.66 6.16 4.025 8.432 7.093 2.302 3.062 3.924 6.84 4.867 11.337.929 4.434.958 8.531.086 12.29-.842 3.753-2.457 7.093-4.845 10.02-2.394 2.896-5.503 5.352-9.327 7.367-3.825 2.015-8.245 3.548-13.261 4.6-5.016 1.051-9.679 1.422-13.991 1.113-4.311-.31-8.16-1.307-11.547-2.992-3.362-1.722-6.182-4.132-8.46-7.231-2.278-3.098-3.882-6.865-4.811-11.3Zm26.104-5.472c.539 2.57 1.104 4.734 1.697 6.493.616 1.723 1.3 3.081 2.051 4.073.744.961 1.614 1.609 2.61 1.943.99.303 2.173.311 3.549.022 1.376-.288 2.441-.767 3.195-1.436.778-.706 1.315-1.648 1.61-2.828.32-1.216.401-2.734.243-4.553-.164-1.85-.515-4.058-1.054-6.628-1.077-5.138-2.32-8.63-3.728-10.473-1.384-1.881-3.422-2.54-6.113-1.975-1.377.288-2.457.77-3.241 1.445-.791.645-1.331 1.572-1.62 2.782-.296 1.18-.377 2.697-.243 4.553.158 1.82.506 4.013 1.044 6.582ZM213.578 39.167l6.915 46.078c.311 2.07 1.025 3.354 2.142 3.85 1.113.465 2.457.58 4.033.343l1.252-.188 2.581 17.198-39.032 5.857-2.581-17.198 1.808-.271c1.638-.246 2.767-.937 3.386-2.073.646-1.17.878-2.36.698-3.564l-3.562-23.735c-.269-1.792-1.038-3.02-2.307-3.682-1.242-.699-2.605-.937-4.088-.714l-1.02.153-2.581-17.198 32.356-4.856ZM297.541 30.43l4.25 47.623c.114 1.276.542 2.21 1.286 2.803.771.559 1.795.78 3.071.667l2.661-.237 1.546 17.321-31.375 2.8-.758-8.497-.748.067c-.378 1.382-.996 2.724-1.852 4.024-.857 1.3-1.944 2.48-3.261 3.538-1.32 1.028-2.922 1.892-4.804 2.594-1.849.73-3.987 1.203-6.415 1.419-7.626.681-13.605-1.107-17.939-5.364-4.335-4.288-6.902-10.898-7.699-19.831-.797-8.934.712-15.751 4.528-20.453 3.816-4.701 9.397-7.38 16.742-8.035 1.961-.175 3.734-.177 5.318-.004 1.584.172 3.036.45 4.357.834a27.66 27.66 0 0 1 3.788 1.31c1.204.488 2.407.961 3.609 1.419l-.15-1.681c-.15-1.68-.551-2.837-1.204-3.47-.624-.665-1.761-.925-3.411-.777l-2.474.22-1.375-15.407 32.309-2.883Zm-35.429 47.023c.15 1.68.385 3.26.705 4.737.32 1.477.779 2.754 1.377 3.83.629 1.074 1.392 1.884 2.288 2.431.927.545 2.091.755 3.492.63 1.4-.125 2.525-.523 3.375-1.195.85-.672 1.477-1.56 1.881-2.662.434-1.106.68-2.398.736-3.878.056-1.48.011-3.044-.137-4.694l-.941-10.552c-.845-.677-1.943-1.207-3.295-1.588-1.355-.413-2.639-.565-3.853-.456-1.401.125-2.505.584-3.312 1.378-.78.76-1.381 1.754-1.805 2.984-.392 1.227-.612 2.628-.66 4.2a40.524 40.524 0 0 0 .149 4.835ZM345.661 74.835c.212 4.654 1.147 7.855 2.805 9.606 1.688 1.719 4.063 2.55 7.125 2.493a10.702 10.702 0 0 0 2.992-.478 8.696 8.696 0 0 0 2.738-1.504c.831-.703 1.533-1.607 2.106-2.712.604-1.136.984-2.55 1.14-4.24l17.06-.318c-.55 4.042-1.643 7.438-3.28 10.188-1.605 2.749-3.704 4.991-6.298 6.727-2.593 1.705-5.633 2.95-9.119 3.733-3.454.815-7.322 1.262-11.602 1.342-4.406.082-8.556-.404-12.451-1.456-3.896-1.053-7.333-2.692-10.312-4.918-2.949-2.258-5.284-5.106-7.004-8.543-1.722-3.469-2.627-7.61-2.716-12.42-.086-4.594.62-8.639 2.118-12.136 1.497-3.497 3.631-6.428 6.4-8.793 2.799-2.396 6.11-4.224 9.93-5.482 3.853-1.26 8.091-1.933 12.715-2.019 5.687-.106 10.59.553 14.711 1.977 4.121 1.423 7.503 3.454 10.147 6.093 2.643 2.639 4.609 5.837 5.898 9.595 1.289 3.758 1.945 7.95 1.969 12.575l-37.072.69Zm6.598-18.313c-2.187.04-3.797.852-4.83 2.434-1.003 1.55-1.643 4.11-1.92 7.678l13.732-.256c-.245-3.059-.946-5.468-2.104-7.228-1.159-1.791-2.785-2.667-4.878-2.628ZM438.241 69.471c.065-1.217-.039-2.192-.313-2.927-.24-.764-.585-1.346-1.033-1.745-.415-.43-.9-.721-1.455-.876a7.556 7.556 0 0 0-1.628-.275c-2.028-.11-3.574.403-4.636 1.535-1.062 1.132-1.652 2.79-1.769 4.975l-.359 6.693c-.089 1.654.129 2.855.652 3.603.556.718 1.661 1.122 3.315 1.21l2.527.136-.931 17.366-39.131-2.1.931-17.365 2.762.148c1.279.069 2.268-.285 2.967-1.061.732-.806 1.129-1.786 1.191-2.94l.477-8.894c.078-1.467-.306-2.473-1.153-3.02-.814-.575-1.767-.892-2.859-.95l-2.481-.134.931-17.366 27.804 1.492-1.673 12.82.796.042c.944-4.769 3.249-8.354 6.914-10.755 3.665-2.4 8.524-3.438 14.578-3.114 4.275.23 7.722 1.025 10.34 2.386 2.619 1.36 4.611 3.017 5.977 4.968 1.399 1.921 2.305 3.988 2.719 6.2.415 2.182.571 4.225.469 6.129l-.706 13.153c-.088 1.653.129 2.854.652 3.602.556.719 1.661 1.122 3.315 1.21l2.528.136-.932 17.366-32.391-1.737 1.605-29.91ZM556.069 95.482c1.266.202 2.332.26 3.2.178.898-.079 1.641-.372 2.228-.88.623-.533 1.111-1.31 1.463-2.33.353-1.02.659-2.347.92-3.983l16.202 2.583-4.021 25.228-65.964-10.512 2.737-17.174c2.715.432 4.716.387 6.002-.135 1.291-.554 2.096-1.834 2.416-3.84l3.733-23.423c.324-2.037-.043-3.504-1.103-4.4-1.055-.928-2.94-1.608-5.655-2.041l2.736-17.174 65.965 10.513-4.021 25.228-16.201-2.582c.26-1.635.382-2.993.364-4.071-.018-1.08-.243-1.954-.674-2.624-.4-.665-1.015-1.174-1.845-1.528-.794-.38-1.824-.67-3.089-.872l-8.332-1.328-1.963 12.314 14.767 2.353-1.306 8.194-14.766-2.354-2.125 13.332 8.332 1.328ZM624.85 74.228l-3.628 12.395.777.176c2.158-4.573 4.752-7.814 7.78-9.723 3.059-1.902 6.569-2.404 10.531-1.505 2.347.532 4.272 1.369 5.776 2.51 1.54 1.12 2.687 2.42 3.44 3.905.753 1.485 1.171 3.102 1.255 4.851a18.834 18.834 0 0 1-.454 5.184 14.921 14.921 0 0 1-1.604 4.106 10.975 10.975 0 0 1-2.918 3.328c-1.2.914-2.627 1.552-4.279 1.914-1.645.332-3.565.249-5.759-.249-3.048-.691-5.279-2.014-6.695-3.969-1.384-1.948-1.828-4.02-1.33-6.214.242-1.066.567-1.938.977-2.614.417-.706.799-1.26 1.146-1.662.385-.426.647-.735.787-.928.14-.192.057-.323-.247-.392-.64-.145-1.507.427-2.601 1.717-1.063 1.297-1.95 3.515-2.662 6.654l-2.374 10.469c-.366 1.615-.355 2.836.035 3.661.427.802 1.448 1.386 3.063 1.752l2.743.622-3.845 16.96-38.492-8.728 3.846-16.96 2.697.612c1.249.283 2.284.101 3.104-.546.857-.671 1.413-1.57 1.669-2.698l1.969-8.686c.325-1.432.116-2.489-.627-3.17-.705-.705-1.591-1.178-2.658-1.42l-2.423-.55 3.846-16.96 27.155 6.158ZM685.878 96.629c-1.528-.453-2.882-.725-4.062-.814-1.14-.11-2.145-.13-3.012-.062-.868.068-1.615.222-2.239.46a42.82 42.82 0 0 0-1.642.589l.316.582a37.09 37.09 0 0 1 2.109-.352c.778-.095 1.692.013 2.74.324 1.768.525 3.122 1.562 4.064 3.113.951 1.52 1.053 3.539.306 6.055-.711 2.397-2.273 4.036-4.686 4.918-2.374.86-5.208.801-8.504-.176-3.146-.933-5.396-2.579-6.75-4.936-1.315-2.379-1.48-5.231-.493-8.556.542-1.828 1.589-3.49 3.141-4.985 1.561-1.525 3.618-2.691 6.172-3.498 2.583-.798 5.661-1.173 9.232-1.124 3.601.058 7.738.78 12.412 2.166 5.572 1.653 9.971 3.528 13.195 5.626 3.224 2.097 5.565 4.258 7.024 6.484 1.488 2.234 2.281 4.506 2.378 6.817.127 2.319-.125 4.542-.756 6.67l-5.213 17.571c-.808 2.726-1.269 4.61-1.383 5.652-.105 1.012.427 1.692 1.596 2.038.928.276 1.701.032 2.319-.73.656-.783 1.304-2.253 1.944-4.41l1.666-5.618 5.123 1.52-1.693 5.707c-.8 2.697-1.735 5.027-2.807 6.991-1.063 1.934-2.445 3.463-4.148 4.588-1.694 1.094-3.73 1.696-6.109 1.805-2.389.14-5.26-.289-8.616-1.284-3.026-.898-5.445-1.974-7.256-3.228-1.791-1.216-3.129-2.477-4.013-3.782-.884-1.305-1.429-2.543-1.636-3.712-.169-1.191-.133-2.191.107-3l-.719-.213c-.544 1.175-1.415 2.188-2.613 3.038-1.167.86-2.644 1.498-4.43 1.913-1.746.395-3.759.531-6.037.41-2.257-.083-4.734-.525-7.43-1.324-2.577-.765-4.853-1.717-6.829-2.857-1.955-1.102-3.526-2.399-4.713-3.892-1.148-1.514-1.893-3.234-2.234-5.161-.302-1.948-.107-4.09.586-6.427.853-2.876 2.333-4.898 4.44-6.066 2.116-1.198 4.544-1.911 7.285-2.141 2.75-.26 5.652-.263 8.706-.009 3.092.233 5.996.279 8.71.139 2.715-.14 5.085-.659 7.112-1.557 2.027-.899 3.413-2.606 4.16-5.123.666-2.247.495-4.253-.513-6.019-.999-1.796-3.102-3.17-6.307-4.12Zm3.26 22.138a8.342 8.342 0 0 1-3.165 1.604c-1.157.276-2.285.561-3.382.854a10.565 10.565 0 0 0-2.969 1.271c-.881.554-1.513 1.474-1.895 2.763a4.964 4.964 0 0 0 .009 2.936c.308.939 1.242 1.64 2.799 2.102 1.409.417 2.707.216 3.896-.605 1.227-.842 2.134-2.252 2.721-4.229l1.986-6.696Z"/><path fill="#262829" d="m195.07 197.213-2.812 7.43H180l-5.789-15.117c-.297-.734-.656-1.25-1.078-1.547-.406-.312-1.078-.469-2.016-.469v-8.695h17.391v8.695c-.735 0-1.219.141-1.453.422-.219.266-.25.719-.094 1.36l2.062 7.195h.352l2.203-7.195c.391-1.188-.125-1.782-1.547-1.782v-8.695h15.938v8.695c-.735 0-1.211.141-1.43.422-.219.266-.25.719-.094 1.36l2.063 7.195h.328l2.203-7.195c.391-1.188-.117-1.782-1.523-1.782v-8.695h11.906v8.695c-.672 0-1.258.157-1.758.469-.5.297-.891.813-1.172 1.547l-5.812 15.117h-12.727l-2.883-7.43Zm25.805-5.531c0-2.297.398-4.312 1.195-6.047a11.6 11.6 0 0 1 3.399-4.336c1.484-1.172 3.265-2.054 5.343-2.648 2.079-.594 4.399-.891 6.961-.891 2.563 0 4.883.297 6.961.891 2.078.594 3.852 1.476 5.321 2.648a11.608 11.608 0 0 1 3.398 4.336c.813 1.735 1.219 3.75 1.219 6.047 0 2.266-.406 4.274-1.219 6.024a11.964 11.964 0 0 1-3.398 4.406c-1.469 1.172-3.243 2.055-5.321 2.648-2.078.594-4.398.891-6.961.891-2.562 0-4.882-.297-6.961-.891-2.078-.593-3.859-1.476-5.343-2.648a11.956 11.956 0 0 1-3.399-4.406c-.797-1.75-1.195-3.758-1.195-6.024Zm13.336 0c0 1.313.055 2.43.164 3.352.125.906.32 1.64.586 2.203.266.547.625.953 1.078 1.219.453.25 1.031.375 1.734.375.704 0 1.274-.125 1.711-.375.454-.266.813-.672 1.078-1.219.282-.563.477-1.297.586-2.203.11-.922.164-2.039.164-3.352 0-2.625-.25-4.461-.75-5.508-.484-1.062-1.414-1.593-2.789-1.593-.703 0-1.281.125-1.734.375-.453.234-.812.632-1.078 1.195-.266.547-.461 1.281-.586 2.203-.109.906-.164 2.016-.164 3.328Zm37.266-12.867-.399 6.445h.399c.546-2.468 1.453-4.336 2.718-5.601 1.282-1.266 2.938-1.899 4.969-1.899 1.203 0 2.234.196 3.094.586.875.375 1.578.883 2.109 1.524.531.64.914 1.382 1.149 2.226.234.828.351 1.688.351 2.578a7.44 7.44 0 0 1-.328 2.18 5.478 5.478 0 0 1-1.055 1.945c-.484.578-1.109 1.047-1.875 1.407-.765.343-1.711.515-2.836.515-1.562 0-2.796-.398-3.703-1.195-.89-.797-1.336-1.758-1.336-2.883 0-.547.063-1.008.188-1.383a5.8 5.8 0 0 1 .375-.937c.141-.25.234-.43.281-.539.047-.11-.008-.164-.164-.164-.328 0-.687.375-1.078 1.125-.375.75-.563 1.929-.563 3.539v5.367c0 .828.141 1.422.422 1.781.297.344.86.516 1.688.516h1.406v8.695h-19.734v-8.695h1.383c.64 0 1.124-.203 1.453-.61.343-.421.515-.921.515-1.5v-4.453c0-.734-.218-1.226-.656-1.476a2.666 2.666 0 0 0-1.453-.399h-1.242v-8.695h13.922Zm33.187-8.695v20.179l3.164-1.547c.547-.25.899-.46 1.055-.632.172-.188.258-.36.258-.516 0-.391-.414-.586-1.243-.586h-1.078v-8.203h17.813v8.203h-1.43c-.859 0-1.742.055-2.648.164a8.124 8.124 0 0 0-2.485.656l-1.054.539 5.507 5.907c.672.734 1.305 1.195 1.899 1.383.594.187 1.453.281 2.578.281v8.695h-20.32v-8.695h1.218c.563 0 .938-.078 1.125-.235a.754.754 0 0 0 .305-.632c0-.188-.133-.438-.398-.75-.25-.329-.727-.813-1.43-1.454l-2.836 1.407v10.359h-16.359v-8.695h.914c.828 0 1.437-.258 1.828-.774.406-.531.609-1.101.609-1.711v-12c0-.906-.289-1.57-.867-1.992-.562-.437-1.219-.656-1.969-.656h-.515v-8.695h16.359Zm23.789 21.562c0-2.297.399-4.312 1.195-6.047a11.6 11.6 0 0 1 3.399-4.336c1.484-1.172 3.265-2.054 5.344-2.648 2.078-.594 4.398-.891 6.961-.891 2.562 0 4.882.297 6.96.891 2.079.594 3.852 1.476 5.321 2.648a11.598 11.598 0 0 1 3.398 4.336c.813 1.735 1.219 3.75 1.219 6.047 0 2.266-.406 4.274-1.219 6.024a11.953 11.953 0 0 1-3.398 4.406c-1.469 1.172-3.242 2.055-5.321 2.648-2.078.594-4.398.891-6.96.891-2.563 0-4.883-.297-6.961-.891-2.079-.593-3.86-1.476-5.344-2.648a11.956 11.956 0 0 1-3.399-4.406c-.796-1.75-1.195-3.758-1.195-6.024Zm13.336 0c0 1.313.055 2.43.164 3.352.125.906.32 1.64.586 2.203.266.547.625.953 1.078 1.219.453.25 1.031.375 1.735.375.703 0 1.273-.125 1.71-.375.454-.266.813-.672 1.079-1.219.281-.563.476-1.297.586-2.203.109-.922.164-2.039.164-3.352 0-2.625-.25-4.461-.75-5.508-.485-1.062-1.414-1.593-2.789-1.593-.704 0-1.282.125-1.735.375-.453.234-.812.632-1.078 1.195-.266.547-.461 1.281-.586 2.203-.109.906-.164 2.016-.164 3.328Zm56.367 2.391c0 .75.211 1.25.633 1.5.438.25.93.375 1.477.375h1.242v8.695h-13.922v-6.422h-.375c-.359 2.391-1.336 4.203-2.93 5.438-1.593 1.234-3.914 1.851-6.961 1.851-2.14 0-3.882-.304-5.226-.914-1.344-.609-2.383-1.375-3.117-2.297-.735-.937-1.243-1.945-1.524-3.023-.265-1.094-.398-2.117-.398-3.07v-6.399c0-.828-.149-1.414-.446-1.758-.281-.359-.836-.539-1.664-.539h-1.406v-8.695h16.383v14.789c0 .609.07 1.102.211 1.477.14.359.32.64.539.843.234.188.492.313.773.375.297.063.571.094.821.094 1.031 0 1.789-.297 2.273-.891.5-.593.75-1.437.75-2.531v-3.164c0-.828-.148-1.414-.445-1.758-.282-.359-.836-.539-1.664-.539h-1.383v-8.695h16.359v15.258Zm21.703-23.953v8.695h7.008v8.695h-7.008v7.196c0 1.031.141 1.875.422 2.531.297.656.899.984 1.805.984.5 0 .898-.094 1.195-.281.313-.203.555-.461.727-.773.187-.329.304-.696.351-1.102a12.3 12.3 0 0 0 .071-1.359v-3.493h2.695v3.774c0 1.515-.164 2.93-.492 4.242-.313 1.313-.86 2.445-1.641 3.398-.765.954-1.812 1.711-3.14 2.274-1.329.562-3 .844-5.016.844-2.234 0-4.016-.274-5.344-.821-1.328-.547-2.336-1.297-3.023-2.25-.688-.953-1.141-2.086-1.36-3.398a28.135 28.135 0 0 1-.304-4.289v-7.477h-3.68v-7.734c1.172 0 2.258-.25 3.258-.75a7.916 7.916 0 0 0 2.601-2.109 9.908 9.908 0 0 0 1.688-3.094c.406-1.156.609-2.391.609-3.703h8.578Zm40.618 13.968c-1.344 0-2.375.571-3.094 1.711-.719 1.141-1.078 3.039-1.078 5.696 0 2.656.367 4.547 1.101 5.672.75 1.109 1.891 1.664 3.422 1.664a4.51 4.51 0 0 0 1.336-.211 4.065 4.065 0 0 0 1.219-.61c.375-.281.679-.633.914-1.054.25-.438.391-.946.422-1.524h7.57c-.5 3.485-1.906 6.063-4.219 7.735-2.297 1.656-5.578 2.484-9.843 2.484-2.141 0-4.141-.281-6-.844-1.86-.562-3.477-1.414-4.852-2.555-1.375-1.156-2.453-2.601-3.234-4.335-.782-1.75-1.172-3.829-1.172-6.235 0-2.297.39-4.312 1.172-6.047.781-1.734 1.875-3.179 3.281-4.336 1.422-1.172 3.094-2.054 5.016-2.648 1.937-.594 4.062-.891 6.374-.891 2.454 0 4.524.305 6.211.914 1.688.61 3.047 1.375 4.079 2.297 1.046.906 1.789 1.891 2.226 2.953.453 1.047.68 2.032.68 2.953 0 .735-.11 1.454-.328 2.157a5.223 5.223 0 0 1-1.032 1.922c-.468.578-1.07 1.046-1.804 1.406-.735.344-1.633.515-2.696.515-1.015 0-1.843-.14-2.484-.421-.641-.297-1.141-.657-1.5-1.079a4.49 4.49 0 0 1-.75-1.359 4.871 4.871 0 0 1-.211-1.359c0-.953.227-1.711.68-2.274.453-.562.976-.953 1.57-1.172a16.569 16.569 0 0 0-1.055-.75c-.343-.25-.984-.375-1.921-.375Zm31.218-13.968v23.297c0 1.046.258 1.734.774 2.062.515.313 1.172.469 1.969.469h.632v8.695h-19.734v-8.695h.914c.828 0 1.438-.258 1.828-.774.406-.531.61-1.101.61-1.711v-12c0-.906-.29-1.57-.868-1.992-.562-.437-1.218-.656-1.968-.656h-.516v-8.695h16.359Zm38.789 23.953c0 .75.211 1.25.633 1.5.438.25.93.375 1.477.375h1.242v8.695h-13.922v-6.422h-.375c-.359 2.391-1.336 4.203-2.93 5.438-1.593 1.234-3.914 1.851-6.961 1.851-2.14 0-3.882-.304-5.226-.914-1.344-.609-2.383-1.375-3.117-2.297-.735-.937-1.243-1.945-1.524-3.023-.265-1.094-.398-2.117-.398-3.07v-6.399c0-.828-.149-1.414-.445-1.758-.282-.359-.836-.539-1.665-.539h-1.406v-8.695h16.383v14.789c0 .609.07 1.102.211 1.477.141.359.32.64.539.843.234.188.492.313.773.375.297.063.571.094.821.094 1.031 0 1.789-.297 2.273-.891.5-.593.75-1.437.75-2.531v-3.164c0-.828-.148-1.414-.445-1.758-.281-.359-.836-.539-1.664-.539h-1.383v-8.695h16.359v15.258Zm21.282 2.929c.25.422.734.758 1.453 1.008.719.235 1.383.352 1.992.352.703 0 1.273-.172 1.711-.516.437-.359.781-.836 1.031-1.429.266-.594.445-1.282.539-2.063a20.4 20.4 0 0 0 .141-2.437c0-.829-.047-1.618-.141-2.368-.094-.75-.273-1.406-.539-1.968-.25-.563-.601-1-1.055-1.313-.453-.328-1.031-.492-1.734-.492-.703 0-1.273.164-1.711.492-.422.313-.765.75-1.031 1.313-.25.562-.422 1.218-.516 1.968a19.05 19.05 0 0 0-.14 2.368v5.085Zm8.789-19.007c3.578 0 6.375 1.164 8.39 3.492 2.016 2.312 3.024 5.711 3.024 10.195 0 4.485-1.055 7.899-3.164 10.242-2.11 2.328-5.008 3.493-8.696 3.493-1.312 0-2.468-.125-3.468-.375a13.178 13.178 0 0 1-2.649-.915 12.627 12.627 0 0 1-2.133-1.335c-.64-.5-1.265-1-1.875-1.5h-.328l-.82 3.351h-9.938v-23.18c0-.906-.289-1.57-.867-1.992a3.18 3.18 0 0 0-1.969-.656h-.515v-8.695h16.219v13.218h.375a9.487 9.487 0 0 1 .961-1.968 6.765 6.765 0 0 1 1.64-1.711c.672-.5 1.485-.899 2.438-1.196.968-.312 2.093-.468 3.375-.468Z"/></svg>