<svg xmlns="http://www.w3.org/2000/svg" width="558" height="41" fill="none"><path fill="#FAF8F2" fill-rule="evenodd" d="M152.605 12.024c.273.55.489.984.489 1.057.287-.236.579-.459.873-.67l2.167 10.094c-.352-.422-.628-.76-.714-.883-.1-.142-.335-.041-.731.129-.759.327-2.108.907-4.212.496-1.09-.213-2.415-.692-3.793-1.19-2.668-.963-5.531-1.997-7.257-1.31-.859.342-1.876 1.021-2.977 1.757-2.251 1.505-4.857 3.246-7.2 2.826-1.4-.25-2.543-.837-3.579-1.368-1.544-.793-2.851-1.463-4.417-.715-2.617 1.25-5.961 3.542-6.688 4.375-.257.294-.369-.165-.527-.818-.291-1.196-.74-3.042-2.526-2.099-2.21 1.167-3.15 2.431-3.344 2.917-.436.764-1.687 1.375-3.199-2.292-.339.417-1.25 1.25-2.181 1.25-.488 0-1.49-.882-2.616-1.874-1.556-1.37-3.35-2.95-4.362-2.709-1.861 1-2.326.833-2.326.625-.727-.208-2.181-.75-2.181-1.25 0-.625-2.036 2.708-2.036 3.958s-2.617 4.792-3.78 4.792c-1.163 0-3.489-2.083-4.216-5.417-1.309.903-4.303 3.042-5.816 4.375-1.89 1.667-5.524-3.125-5.67-4.583-.823 1.528-2.684 4.147-3.78 3.958-1.722-.296-2.628-2.088-3.507-3.826-.976-1.93-1.918-3.794-3.908-3.465-1.308.486-4.448 1.916-6.542 3.75-.012 0-.03.004-.055.01-.283.062-1.417.313-3.289-3.135l-.11-.204c-1.964-3.621-3.039-5.603-8.177-4.171-.824.555-2.646.875-3.344-2.292-.872-.556-2.791-1.625-3.49-1.458-.872.208-5.088 1.042-5.379 1.042-.08 0-.195-.21-.366-.522-.442-.809-1.259-2.302-2.832-2.603-2.181-.417-7.706-.417-8.142 0-.092.088-.236.27-.42.5-.686.862-1.923 2.417-3.07 2.417-1.453 0-5.67-.834-7.269-4.167L0 9.123V40.5h558V4.748c-.374-.322-2.711.129-4.932.557-2.095.404-4.086.788-4.227.484a1.694 1.694 0 0 0-.873-.833c-.484.486-1.686 1.542-2.617 1.875-1.163.417-2.617 0-3.344-.625-.727-.625-5.961 0-6.397.625-.264.379-.048.834.293 1.552.222.466.496 1.043.725 1.781.13.419.209.66.257.791l-1.083 2.588c-.122-.428-.238-.675-.337-.462-.233.5-1.26.625-1.745.625-11.433-3.429-11.196-1.11-11.072.109v.001c.012.114.023.218.023.307 0 .287.033.605.066.92.086.83.17 1.637-.357 1.788-.582.167-5.573-1.875-7.997-2.917-.872.417-2.878 1.042-3.925.209-.697-.555-4.405-.282-7.806-.032-2.985.22-5.734.421-6.006.032-.361-.518-3.253-1.117-5.807-1.646-1.554-.322-2.983-.618-3.643-.854-1.396-.5-2.036-1.18-2.181-1.459-.048.278-.233.875-.581 1.042-.288.137-.701-1.172-1.158-2.617v-.001c-.237-.749-.485-1.534-.733-2.174-.581-1.5-3.925-.625-5.524 0-1.918 2.749-8.679 5.639-11.401 6.802-.579.248-.975.417-1.103.49-.174.1-.39.332-.654.615h-.001c-.836.898-2.153 2.31-4.142 1.677-1.769-.563-6.261-.841-9.257-1.026-1.436-.09-2.528-.157-2.811-.224-.635-.152-3.275.912-5.337 1.743h-.001c-.769.31-1.457.587-1.931.757l-.158.056c-.601.216-.778.28-.907.227a.597.597 0 0 1-.165-.124c-.169-.157-.469-.434-1.387-.784-1.344-.514-2.412.239-3.408.94-.62.438-1.212.855-1.826.935-1.279.166-2.956-.764-3.635-1.25-3.021 3.464-4.648 4.228-6.425 5.063-.788.37-1.606.755-2.589 1.395-2.743 1.787-6.448-4.547-7.448-6.256-.166-.284-.257-.44-.257-.41 0 .208-1.6.833-2.472.624-.619-.148-1.971-1.765-2.807-2.766h-.001c-.341-.41-.597-.715-.681-.775a1.136 1.136 0 0 0-.209-.116c-.212-.098-.578-.267-1.972-1.343-1.512-1.166-2.859-.486-3.344 0-1.066 1.32-3.751 4.167-5.961 5-2.327.878-4.035-1.497-5.037-2.89-.188-.261-.35-.487-.488-.651-.804-.96-4.698-.858-5.528-.837l-.088.003h-.054c-3.373-1.5-6.639-.625-7.851 0-3.838 1.667-12.261 3.334-15.993 3.959-.383-1.098-2.866-.692-5.597-.245-2.451.402-5.102.836-6.615.245-2.559-1-3.489-1.528-3.635-1.667-4.362 1.458-8.869.625-10.322 0-.636-.273-1.577-1.7-2.556-3.186-1.262-1.913-2.587-3.924-3.405-3.689-1.163.333-5.428-2.639-7.415-4.166-1.874-4.362-3.558-3.185-4.295-2.67-.178.124-.301.21-.358.17-.116-.084-.327.134-.555.372-.342.354-.724.751-.898.252-.291-.833-1.745-2.083-2.908-1.666-1.163.416-2.472.417-2.763.417-1.81-1.73-7.127-1.45-9.879-1.304-.563.03-1.019.054-1.315.054h-2.763c-1.047 0-1.793 1.944-2.035 2.916-.814-2.166-3.344.07-4.507 1.459-1.512-1.334-4.12-.556-5.234 0-1.212.416-4.158 1-6.252 0-2.617-1.25-5.816.625-6.833 1.25-1.018.625-5.38 1.875-7.415 1.666-1.174-.12-1.477-.725-1.663-1.096-.137-.272-.21-.418-.518-.154-.727.625-12.212.625-14.103 0-1.512-.5-3.828.209-4.797.625-5.583 2.667-10.468.695-12.213-.625-.465 1.834-1.551 2.709-2.035 2.917-1.328 1.141-3.867-3.1-5.073-5.116a57.379 57.379 0 0 0-.307-.51c-1.017-1.666-1.599-1.04-1.89-.624-.232.333-.969.139-1.308 0-2.763-3.333-9.887 1.667-13.231 4.167a3.922 3.922 0 0 1-.527.335l-1.941.324c-1.647-.263-3.066-1.747-3.867-2.585-.326-.34-.549-.574-.643-.574-.155 0-.639.235-1.244.53-1.102.537-2.606 1.27-3.263 1.136-.814-.166-5.477-1.18-7.706-1.666-.484.555-2.384 1.083-6.106-1.25-3.722-2.334-5.525-1.112-5.961-.21-1.861-2.666-3.78-2.916-4.507-2.707-1.029-.59-3.15 1.012-4.457 1.998-.54.407-.94.71-1.068.71-3.489-1.25-12.067 5.833-12.212 6.25-.095.27.606 1.68 1.11 2.693Z" clip-rule="evenodd"/></svg>